<?xml version="1.0" standalone="no"?>
<!DOCTYPE svg PUBLIC "-//W3C//DTD SVG 20010904//EN"
 "http://www.w3.org/TR/2001/REC-SVG-20010904/DTD/svg10.dtd">
<svg version="1.0" xmlns="http://www.w3.org/2000/svg"
 width="728.000000pt" height="524.000000pt" viewBox="0 0 728.000000 524.000000"
 preserveAspectRatio="xMidYMid meet">

<g transform="translate(0.000000,524.000000) scale(0.100000,-0.100000)"
fill="#000000" stroke="none">
<path d="M4461 4680 c-10 -40 -17 -50 -34 -50 -40 0 -109 -43 -147 -91 -85
-108 -102 -233 -45 -337 26 -48 26 -51 10 -76 -17 -26 -17 -26 11 -36 38 -14
214 -92 238 -106 17 -10 16 -14 -18 -66 -29 -43 -45 -58 -76 -67 -25 -7 -37
-16 -34 -24 2 -7 -7 -19 -21 -27 -14 -7 -25 -17 -25 -22 0 -4 -15 -8 -34 -8
-19 0 -38 -4 -41 -10 -4 -6 1 -7 12 -3 15 6 14 2 -5 -21 -12 -16 -19 -32 -16
-37 3 -5 13 0 23 12 10 12 23 20 31 17 10 -3 10 -7 -2 -19 -15 -14 -20 -49 -8
-49 3 0 11 5 17 11 8 8 13 2 18 -20 5 -26 11 -31 26 -26 12 4 19 2 19 -7 1 -7
18 23 39 67 42 88 39 89 56 -23 6 -37 9 -41 22 -30 9 7 19 13 22 13 3 0 5 38
3 84 -3 79 -2 85 25 120 16 20 32 44 36 54 8 21 25 21 51 2 11 -8 25 -15 32
-15 7 0 37 62 67 138 93 229 116 283 179 418 34 74 34 78 6 96 -34 21 -405
188 -418 188 -3 0 -12 -22 -19 -50z m-47 -925 c-9 -14 -19 -23 -22 -20 -5 4
26 45 35 45 2 0 -4 -11 -13 -25z m-92 -17 c-7 -7 -12 -8 -12 -2 0 6 3 14 7 17
3 4 9 5 12 2 2 -3 -1 -11 -7 -17z m28 -27 c0 -4 -7 -8 -15 -8 -16 0 -20 9 -9
20 8 8 24 -1 24 -12z"/>
<path d="M4526 3755 c-9 -26 -7 -32 5 -12 6 10 9 21 6 23 -2 3 -7 -2 -11 -11z"/>
<path d="M5020 3595 c-11 -13 -11 -28 -1 -86 7 -39 11 -72 8 -75 -2 -3 -17 25
-33 61 -16 36 -32 65 -36 65 -17 0 -6 -69 22 -134 31 -74 32 -90 2 -63 -10 10
-24 17 -30 17 -30 0 -5 -38 81 -124 89 -88 96 -97 141 -205 38 -90 45 -115 35
-127 -9 -11 -6 -22 14 -53 14 -21 34 -56 43 -77 10 -22 20 -42 22 -46 2 -5 -1
-8 -6 -8 -6 0 -26 28 -45 63 -19 34 -52 81 -73 104 -22 23 -61 81 -89 130 -27
48 -60 96 -72 106 -19 15 -23 28 -23 73 0 30 -4 54 -10 54 -5 0 -10 -7 -10
-15 0 -8 -4 -15 -10 -15 -5 0 -10 10 -10 23 0 33 -11 67 -21 67 -5 0 -9 -13
-9 -30 0 -16 -4 -30 -8 -30 -10 0 -32 45 -32 64 0 8 -11 14 -25 14 -33 0 -33
-35 0 -106 31 -67 31 -68 -1 -43 -33 26 -54 27 -54 4 1 -19 82 -88 134 -113
17 -8 40 -33 52 -55 27 -52 84 -202 84 -222 0 -16 78 -176 127 -258 16 -27 34
-64 40 -80 6 -17 29 -59 52 -95 57 -88 59 -102 23 -147 -53 -67 -92 -163 -93
-229 -1 -32 -4 -86 -8 -119 l-7 -60 -11 50 c-24 102 -48 142 -109 181 -83 53
-161 87 -187 80 -31 -8 -117 -89 -117 -111 0 -17 2 -17 23 3 13 12 30 22 38
22 8 0 23 7 33 15 11 8 29 15 40 15 28 0 170 -111 174 -135 2 -16 1 -17 -6 -6
-17 24 -93 7 -119 -26 -32 -39 -32 -143 -1 -208 12 -25 28 -45 35 -45 7 0 13
-4 13 -9 0 -42 -108 9 -181 85 -47 49 -63 76 -93 154 -20 52 -36 101 -36 108
0 8 9 25 20 39 17 21 17 27 5 39 -16 17 -25 18 -25 4 0 -6 -14 -23 -32 -39
l-31 -28 17 -68 c38 -152 100 -256 225 -380 39 -38 71 -75 71 -82 0 -7 9 -27
20 -45 23 -39 26 -91 5 -108 -12 -10 -17 -5 -29 24 -12 28 -21 36 -40 36 -22
0 -26 4 -26 32 0 17 -8 41 -18 52 -10 12 -26 47 -37 79 -30 94 -73 113 -153
71 -15 -8 -30 -14 -33 -14 -3 0 -18 24 -34 53 -15 28 -43 77 -61 108 -19 31
-34 64 -34 73 0 9 11 39 25 66 14 27 25 60 25 73 0 18 26 45 110 112 103 83
108 89 95 109 -29 40 -242 252 -282 279 l-42 29 -48 -28 c-26 -15 -68 -45 -93
-65 -25 -20 -81 -61 -124 -90 -113 -77 -113 -78 -41 -147 58 -55 195 -204 237
-258 17 -21 19 -34 14 -72 -4 -26 -8 -65 -10 -87 -2 -22 -17 -85 -33 -140 -17
-55 -34 -116 -37 -135 l-6 -35 14 30 14 30 8 -40 c7 -37 8 -38 15 -15 6 21 7
22 9 5 2 -17 3 -16 10 5 7 23 8 23 10 -10 l2 -35 8 30 c4 17 8 22 9 12 0 -10
6 -15 11 -12 6 3 10 -2 10 -11 0 -12 3 -15 10 -8 7 7 6 35 -1 84 -15 111 -28
230 -28 275 -1 36 0 38 12 20 8 -11 32 -69 55 -130 22 -60 52 -139 66 -174 14
-36 24 -67 21 -69 -3 -3 -5 0 -5 6 0 16 -53 15 -68 0 -19 -19 -15 -65 7 -71
16 -4 20 -16 23 -78 2 -53 -2 -84 -14 -110 -19 -42 -38 -55 -88 -60 -31 -4
-35 -1 -38 21 -13 129 -33 160 -99 160 -77 0 -111 -49 -88 -127 l14 -47 -35
-34 -35 -34 2 84 c3 129 -13 189 -64 236 l-25 24 20 46 c11 26 26 54 34 61 13
14 74 35 137 48 18 3 27 12 27 24 0 11 -4 19 -10 19 -18 0 -10 53 11 76 25 27
17 46 -17 38 -32 -8 -30 4 8 43 33 34 31 56 -3 34 -26 -15 -38 -6 -21 17 64
89 32 87 -56 -3 -43 -44 -97 -96 -120 -115 -36 -29 -50 -53 -86 -140 l-43
-105 -44 -7 c-91 -16 -129 -40 -161 -102 -23 -45 -26 -122 -8 -183 10 -32 10
-46 2 -56 -7 -7 -23 -43 -36 -78 -22 -59 -26 -64 -55 -65 -36 -1 -39 6 -11 31
21 19 19 45 -4 74 -6 8 -12 60 -12 127 -1 62 -5 133 -8 156 -6 37 -2 50 23 90
16 25 50 65 75 88 25 24 46 46 46 51 0 16 -27 9 -45 -11 -10 -11 -24 -20 -32
-20 -16 0 -18 26 -2 35 10 7 19 26 33 73 14 42 -19 24 -43 -25 -31 -62 -39
-40 -10 27 21 50 21 69 -1 55 -6 -3 -23 -32 -39 -63 l-29 -57 5 49 c5 38 3 48
-8 44 -7 -2 -18 -21 -22 -42 -9 -36 -10 -36 -28 -20 -18 16 -19 16 -19 -10 0
-15 -7 -40 -15 -56 -12 -23 -14 -59 -10 -187 3 -103 1 -174 -7 -205 -11 -47
-13 -48 -50 -48 -30 0 -41 6 -55 27 -16 24 -18 49 -16 203 1 96 6 195 10 220
8 40 14 48 54 70 58 32 111 80 88 80 -9 0 -30 -7 -45 -15 -30 -16 -54 -19 -54
-9 0 4 18 33 40 66 22 33 40 64 40 69 0 18 -37 -6 -78 -50 -41 -45 -42 -45
-36 -16 4 17 15 50 25 74 11 24 17 46 15 49 -13 12 -36 -11 -57 -57 -25 -53
-42 -60 -47 -20 -7 53 -24 101 -32 93 -5 -5 -10 -43 -12 -84 -3 -69 -5 -75
-26 -78 -12 -2 -37 6 -56 17 -35 22 -61 27 -70 13 -3 -4 27 -41 66 -82 l70
-74 -6 -58 c-10 -99 -14 -107 -55 -114 -20 -4 -42 -11 -48 -17 -10 -7 -13 8
-13 72 0 69 3 84 20 98 21 19 28 39 8 27 -8 -5 -9 -2 -5 9 3 10 2 17 -4 17 -6
0 -7 6 -4 13 4 6 -1 3 -9 -7 -9 -12 -16 -14 -16 -7 0 9 -4 9 -15 -2 -10 -10
-16 -45 -19 -112 -5 -106 -25 -163 -73 -206 l-26 -24 16 25 c34 50 15 115 -41
144 -36 18 -49 12 -72 -35 -24 -46 -25 -87 -4 -117 17 -24 14 -39 -6 -27 -5 3
-22 28 -35 55 -28 55 -34 151 -14 208 10 28 8 35 -13 60 -33 40 -41 41 -49 8
-6 -22 -4 -32 8 -41 15 -11 15 -21 3 -99 -15 -101 -6 -161 35 -226 14 -22 25
-42 25 -45 0 -3 -27 -5 -60 -5 -41 0 -69 -6 -87 -17 l-26 -17 7 89 c5 55 15
103 27 126 34 67 27 94 -43 164 -34 34 -68 77 -77 95 -20 41 -33 41 -48 -2 -7
-18 -12 -25 -12 -15 -1 25 -18 21 -25 -7 -7 -30 8 -73 36 -104 31 -32 1 -29
-34 5 -15 14 -31 24 -34 20 -12 -11 37 -77 62 -83 34 -9 57 -57 51 -108 -2
-22 -14 -92 -27 -154 -22 -104 -25 -112 -44 -106 -24 7 -60 44 -136 143 -69
90 -77 107 -63 130 19 30 27 112 13 121 -10 6 -6 27 20 90 28 69 39 85 74 107
22 15 46 32 53 39 7 7 18 14 25 17 10 3 10 8 2 17 -9 9 -17 9 -34 0 -21 -11
-21 -11 -7 17 23 43 25 77 5 81 -11 2 -18 -7 -24 -30 l-7 -33 -13 30 -12 30
-8 -40 c-4 -22 -9 -34 -11 -27 -9 24 -22 11 -17 -16 4 -21 -1 -36 -19 -58 -13
-16 -37 -51 -52 -79 -16 -27 -46 -70 -66 -95 -21 -25 -43 -58 -49 -74 -6 -16
-13 -26 -17 -23 -3 4 6 31 21 60 14 30 26 64 26 76 0 50 60 156 126 220 46 44
62 67 55 74 -7 7 -15 6 -26 -3 -20 -16 -19 -11 5 50 11 28 20 57 20 65 0 28
-18 15 -30 -20 -18 -55 -29 -50 -23 10 4 38 2 55 -6 55 -6 0 -11 -12 -12 -27
0 -16 -4 -37 -9 -48 -7 -15 -9 -10 -9 23 -1 57 -19 53 -23 -5 -3 -49 -19 -61
-28 -22 -3 12 -12 25 -19 27 -11 4 -12 0 -6 -14 4 -11 10 -44 12 -75 5 -52 2
-61 -47 -148 -28 -50 -71 -122 -95 -158 -25 -37 -47 -80 -50 -95 -4 -15 -14
-34 -23 -40 -37 -28 -82 -90 -82 -113 0 -19 -5 -25 -22 -25 -32 0 -45 -11 -58
-45 -17 -43 -15 -128 4 -217 20 -94 20 -88 -2 -88 -31 0 -79 51 -85 90 -4 29
0 40 25 66 28 30 30 37 31 110 1 127 -40 180 -121 156 -28 -9 -44 -22 -60 -51
-21 -37 -24 -39 -51 -30 -16 6 -37 19 -46 29 -17 19 -16 24 33 122 28 57 65
149 82 206 31 102 31 103 15 158 -10 34 -27 65 -43 80 -51 44 -73 22 -26 -27
14 -15 24 -33 22 -41 -3 -8 -11 -1 -21 18 -15 30 -49 43 -105 44 -22 0 -8 -24
19 -31 17 -5 11 -7 -20 -6 -55 2 -65 -17 -17 -37 l35 -14 -1 -109 0 -108 -56
-82 c-30 -46 -56 -83 -58 -83 -1 0 -12 17 -24 38 -12 20 -53 62 -92 92 -73 57
-148 133 -148 149 0 13 -97 81 -115 81 -11 0 -15 -9 -13 -32 1 -27 17 -48 78
-108 42 -41 102 -106 135 -145 32 -38 76 -88 98 -111 l38 -41 -57 -116 c-52
-105 -61 -116 -88 -120 -17 -3 -32 -4 -34 -2 -1 1 2 23 8 48 12 58 1 91 -39
112 -44 22 -77 19 -111 -13 -27 -23 -31 -36 -37 -95 l-6 -68 -41 6 c-51 8 -85
40 -92 87 -5 29 -3 36 14 40 23 6 28 54 6 62 -19 7 -18 56 1 56 11 0 15 11 15
40 l0 40 58 0 c31 1 77 5 102 11 25 6 61 11 80 12 20 1 35 7 35 14 0 7 -25 31
-55 54 -54 40 -56 41 -115 35 -118 -11 -123 -15 -250 -162 -104 -120 -123
-138 -183 -166 -48 -23 -67 -28 -70 -18 -3 7 -13 21 -23 31 -21 21 -22 19 88
210 54 95 103 133 168 131 24 -1 47 3 50 8 9 15 -14 40 -36 40 -11 0 -19 7
-19 15 0 8 4 15 9 15 5 0 11 11 13 25 4 19 -2 30 -28 50 -19 15 -38 24 -43 20
-5 -3 -12 -1 -16 5 -9 15 -81 12 -94 -4 -6 -7 -8 -26 -5 -44 5 -25 -2 -43 -45
-107 -29 -42 -77 -106 -108 -143 -31 -37 -68 -82 -83 -99 -15 -18 -32 -33 -37
-33 -17 0 20 186 53 265 17 41 9 64 -31 85 -17 9 -24 19 -19 29 15 40 45 211
42 251 -1 25 2 60 6 78 5 22 4 38 -4 48 -18 21 -36 2 -50 -53 l-11 -47 -27 33
c-15 18 -40 58 -57 89 -16 30 -35 57 -42 59 -34 11 -18 -77 48 -269 18 -53 19
-62 6 -105 -8 -27 -24 -64 -35 -85 -11 -20 -19 -38 -16 -40 2 -3 -13 -52 -34
-109 -22 -57 -42 -125 -46 -151 -4 -26 -11 -50 -16 -53 -5 -3 -6 -27 -3 -53 4
-36 0 -59 -16 -94 -21 -46 -21 -58 -21 -622 l0 -576 3634 0 3633 0 5 138 c3
75 4 292 3 482 l-1 345 -38 57 c-21 32 -47 60 -57 63 -21 7 -24 16 -9 31 5 5
13 31 16 56 6 41 3 49 -19 72 -48 48 -112 46 -149 -5 -12 -16 -22 -50 -25 -87
-5 -53 -9 -62 -25 -62 -11 0 -22 9 -25 19 -3 11 -22 27 -44 35 -22 9 -42 23
-45 31 -4 9 -3 49 1 90 5 55 11 75 21 75 9 0 14 12 14 35 0 29 -5 37 -25 45
-33 13 -52 4 -64 -30 -5 -16 -19 -33 -30 -40 -15 -8 -21 -21 -21 -48 0 -45
-15 -74 -22 -44 -3 11 -2 25 2 31 3 7 3 38 -2 71 -9 55 -7 63 17 104 15 25 49
67 76 93 27 26 49 53 49 60 0 18 -7 16 -46 -13 -43 -34 -54 -25 -27 24 26 47
37 92 23 92 -6 0 -19 -14 -28 -31 -9 -17 -25 -41 -34 -53 -14 -16 -12 -6 7 47
29 79 29 77 11 77 -8 0 -29 -28 -46 -62 l-30 -63 6 54 c6 43 4 53 -7 49 -12
-4 -19 -18 -36 -78 -4 -13 -6 -12 -14 3 -15 26 -29 20 -29 -13 0 -17 -7 -45
-16 -62 -13 -25 -15 -47 -10 -104 4 -40 4 -84 0 -98 -5 -21 -9 -23 -27 -16
-12 5 -41 14 -64 20 -51 13 -51 11 -17 150 27 112 33 195 15 213 -14 14 -25 2
-26 -31 0 -18 -6 -28 -19 -30 -12 -3 -16 0 -11 8 4 6 4 106 0 221 -7 194 -9
209 -25 204 -13 -4 -19 1 -24 20 -11 45 -26 27 -26 -32 0 -70 -17 -136 -33
-130 -7 2 -23 20 -36 40 -22 33 -51 50 -51 29 0 -21 59 -142 83 -171 20 -24
27 -43 27 -76 0 -52 -22 -117 -48 -143 -11 -11 -23 -34 -27 -51 -4 -17 -10
-31 -13 -31 -10 1 -112 135 -156 203 -38 61 -57 117 -38 117 15 0 3 36 -18 55
-27 25 -130 4 -181 -37 -45 -36 -53 -80 -19 -98 26 -14 26 -30 -1 -30 -32 0
-59 -19 -59 -40 0 -18 7 -20 59 -20 108 0 161 -54 295 -304 48 -89 48 -89 32
-123 -12 -24 -21 -33 -34 -29 -9 3 -39 8 -66 12 -55 8 -131 64 -205 153 l-43
51 21 50 c40 92 20 155 -57 178 -61 19 -92 15 -118 -14 -28 -29 -33 -28 -58
20 -19 35 -19 36 4 93 42 110 92 309 119 478 8 49 -13 179 -34 211 -10 16 -29
26 -55 30 -36 6 -41 10 -51 47 -12 46 -46 94 -106 152 -26 25 -47 58 -58 90
-9 27 -20 52 -24 55 -8 5 -40 58 -144 235 -117 201 -127 234 -101 343 17 72
17 82 1 82 -7 0 -19 -22 -26 -50 -7 -27 -17 -50 -21 -50 -5 0 -12 21 -15 48
-11 84 -17 103 -28 99 -8 -3 -11 -27 -10 -68 l2 -64 -13 35 c-8 19 -15 49 -15
65 -2 44 -14 60 -31 40z m-456 -2181 c3 -8 2 -12 -4 -9 -6 3 -10 10 -10 16 0
14 7 11 14 -7z m-2329 -161 c16 -37 49 -97 73 -133 45 -67 82 -133 82 -147 0
-7 -54 -9 -107 -4 -15 1 -37 51 -47 106 -10 54 -56 103 -56 60 0 -25 -19 -17
-39 16 -19 32 -19 32 3 68 12 20 28 51 35 69 8 17 16 32 20 32 4 0 20 -30 36
-67z m2413 -11 c-25 -4 -26 -3 -35 38 l-6 34 31 -34 c28 -33 29 -35 10 -38z
m-3936 -220 c-19 -2 -36 -1 -39 2 -3 2 8 21 23 41 l28 37 11 -38 11 -39 -34
-3z m1944 -13 c7 -23 8 -41 3 -45 -11 -6 -15 6 -23 60 -6 47 4 39 20 -15z
m-476 3 c0 -13 -3 -12 -15 4 -19 25 -19 40 0 24 8 -7 15 -20 15 -28z m-500
-36 c0 -2 -7 -6 -15 -10 -8 -3 -15 -1 -15 4 0 6 7 10 15 10 8 0 15 -2 15 -4z"/>
<path d="M2852 3474 c-5 -8 -20 -21 -33 -27 -13 -7 -32 -29 -42 -49 -15 -31
-16 -43 -6 -82 11 -43 15 -47 78 -76 36 -17 68 -31 70 -31 7 0 90 204 86 212
-4 6 -131 69 -141 69 -1 0 -7 -7 -12 -16z"/>
<path d="M3320 3295 c-7 -8 -21 -15 -31 -15 -10 0 -20 -4 -23 -8 -7 -11 43
-115 60 -125 8 -4 14 -13 14 -18 0 -22 98 -92 143 -103 33 -8 34 -20 5 -40
-12 -9 -20 -18 -17 -20 2 -2 78 -8 169 -11 l165 -7 127 80 c123 77 127 80 97
86 -17 3 -48 6 -68 6 -32 0 -38 5 -55 41 -10 22 -29 47 -42 56 -66 43 -215 19
-279 -45 -36 -36 -37 -39 -31 -89 5 -42 3 -53 -8 -53 -27 0 -67 20 -61 30 3 5
-12 28 -33 49 -52 53 -57 69 -31 97 12 13 19 30 16 38 -4 9 -2 18 3 21 10 6
14 45 5 45 -3 0 -17 -7 -30 -16 -22 -14 -26 -14 -47 0 -28 20 -32 20 -48 1z"/>
<path d="M5915 3238 c33 -29 75 -67 94 -84 l35 -31 -37 -43 c-20 -24 -37 -50
-37 -57 0 -8 11 -36 25 -63 41 -82 125 -130 225 -130 102 0 114 6 139 64 11
28 21 59 21 69 0 14 9 17 51 17 40 0 50 -3 46 -14 -3 -8 -11 -32 -18 -55 -7
-23 -15 -41 -19 -41 -11 0 -40 -76 -40 -104 0 -26 -15 -42 -45 -48 -11 -2 -19
-10 -17 -17 1 -7 -7 -15 -18 -18 -13 -3 -20 -14 -20 -29 0 -13 2 -24 5 -24 11
0 60 35 68 47 19 30 25 10 7 -24 -22 -41 -19 -53 7 -32 15 12 16 12 11 -3 -5
-11 -2 -15 10 -14 9 2 17 8 17 14 0 10 7 15 18 11 1 0 14 -3 30 -5 28 -5 35 4
17 22 -15 15 -21 105 -11 142 6 19 6 45 1 64 -11 36 6 117 24 119 6 0 32 0 59
-1 28 -1 47 3 47 9 0 6 -4 11 -9 11 -5 0 -38 24 -74 53 -36 28 -111 88 -168
132 l-102 79 -131 12 c-72 7 -162 15 -201 19 l-70 5 60 -52z m528 -482 c3 -30
1 -43 -4 -35 -5 8 -8 34 -8 59 1 53 6 44 12 -24z"/>
<path d="M2731 2917 c-6 -6 -11 -17 -11 -24 0 -18 -37 -81 -77 -130 -20 -24
-33 -43 -31 -43 14 0 67 33 87 54 13 14 40 27 62 31 25 4 39 12 39 22 0 11 -7
14 -25 9 -30 -8 -33 4 -5 22 26 16 25 33 -4 54 -17 13 -26 14 -35 5z"/>
<path d="M2550 2778 c0 -26 25 -220 35 -263 2 -11 20 -38 40 -60 19 -22 35
-43 35 -47 0 -10 99 -88 111 -88 5 0 4 10 -2 22 -7 12 -18 43 -24 69 l-13 48
28 6 c34 7 40 26 40 123 0 64 -3 76 -25 97 -31 32 -80 33 -112 4 -19 -19 -25
-20 -39 -8 -9 7 -20 22 -26 34 -5 11 -18 36 -28 55 -19 35 -19 35 -20 8z"/>
<path d="M1715 2522 c-66 -26 -70 -29 -73 -62 -10 -93 6 -133 59 -153 16 -6
29 -15 29 -19 0 -4 23 1 50 12 28 11 62 20 75 20 14 0 25 4 25 8 0 12 -80 205
-89 214 -3 4 -37 -6 -76 -20z"/>
</g>
</svg>
